PathFileType	4	(X/Y/Z)	21_coords_data.trc
DataRate	CameraRate	NumFrames	NumMarkers	Units	OrigDataRate	OrigDataStartFrame	OrigNumFrames
30.0	30.0	9	21	m	30.0	40	59
Frame#	Time	THUMB_TIP	THUMB_IP	THUMB_MCP	THUMB_CMC	INDEX_TIP	INDEX_DIP	INDEX_PIP	INDEX_MCP	MIDDLE_TIP	MIDDLE_DIP	MIDDLE_PIP	MIDDLE_MCP	RING_TIP	RING_DIP	RING_PIP	RING_MCP	PINKY_TIP	PINKY_DIP	PINKY_PIP	PINKY_MCP	WRIST
X1	Y1	Z1	X2	Y2	Z2	X3	Y3	Z3	X4	Y4	Z4	X5	Y5	Z5	X6	Y6	Z6	X7	Y7	Z7	X8	Y8	Z8	X9	Y9	Z9	X10	Y10	Z10	X11	Y11	Z11	X12	Y12	Z12	X13	Y13	Z13	X14	Y14	Z14	X15	Y15	Z15	X16	Y16	Z16	X17	Y17	Z17	X18	Y18	Z18	X19	Y19	Z19	X20	Y20	Z20	X21	Y21	Z21
38	1.299999999999994	0.5018420295552066	-0.031695647503759306	-0.16948867902134712	0.4975435842235559	-0.03229164703369447	-0.14692392437408508	0.4882510052620796	-0.03367288961001047	-0.11724969068237712	0.48031258649099906	-0.0275776837363767	-0.0737787811821955	0.5922668637787337	0.0064872739903311105	-0.13307908704518512	0.5748306282128959	0.01137252013540535	-0.13274433430860633	0.5503102646610218	0.016247222993944765	-0.13009879536070235	0.512353830913742	0.009188274442627486	-0.11212335443319754	0.5981543986880449	0.014092695744258532	-0.10523357214946927	0.5829083542589302	0.02348922323820768	-0.10792864178139339	0.5557026298224874	0.03393089414319017	-0.10840782504527335	0.514772812106884	0.02269386498352488	-0.09445694269209204	0.5943507587008166	0.02194504991794377	-0.08798677378368991	0.5788092114279265	0.031072517700537983	-0.08837360739421818	0.555454324232407	0.03969349615257234	-0.08773489492829767	0.5181877923321545	0.028870114009901138	-0.07638673062206891	0.5884099103637397	0.024582318687055293	-0.06647429390121307	0.5730325638252515	0.031964130937768065	-0.06504388789924476	0.5523967246939676	0.035542623962418696	-0.06357128815039825	0.5185977465604736	0.02446394730575785	-0.05759002978206529	0.4622830810018609	-0.023011742144276925	-0.051989820119430985
39	1.3333333333333275	0.5033976721703983	-0.029869123196936576	-0.16903669362992157	0.49872974660932534	-0.03095754649183413	-0.1465639144140034	0.4889412418350786	-0.033036977269833234	-0.11709051722392605	0.4804983443814412	-0.027500029893579248	-0.07363997411638867	0.5925455109950436	0.008787473166529614	-0.13405950656449983	0.5749094521697015	0.012769856292266235	-0.1330059156814153	0.5503109384162848	0.016855322103112247	-0.12980717792545937	0.5123525671981064	0.009510453839012056	-0.11195077687020794	0.5990898910591944	0.017007016434582245	-0.10622303970154412	0.5831449651118279	0.025333089650177443	-0.10832918341495612	0.5555004591062457	0.03456277874359481	-0.10826854558692289	0.5146863274426009	0.022951884041162218	-0.09428492296073288	0.5950296459635651	0.024958385918368076	-0.0885891304348494	0.5788937286114846	0.032997784946883324	-0.08860444275466484	0.555139783714699	0.04041241127904949	-0.08762802215122623	0.5180216636124333	0.029105415424287573	-0.07626501907923056	0.5887667810544406	0.027856027592812915	-0.06658343734463745	0.572835853269283	0.03390786849005978	-0.06497696242777584	0.5520462064219825	0.03635771323526338	-0.06336424308178756	0.5184410888368698	0.024664028778073055	-0.05746193277933631	0.4622830810018609	-0.023011742144276925	-0.051989820119430985
40	1.3666666666666607	0.5049937284759227	-0.027293297964000485	-0.16853552011848894	0.4999643726450503	-0.029026788192790254	-0.14618153632245923	0.4896830238633309	-0.032048386297865994	-0.11695853490029096	0.48067470919343036	-0.02733226061905758	-0.07352469526585681	0.5924113048500217	0.010566460170161274	-0.13417728666299444	0.5746961499432203	0.014088459897323657	-0.1328473225469755	0.5500590824967668	0.01777775714712948	-0.12946888704492987	0.5120391397554558	0.01012886673651836	-0.11187302038727731	0.5992308085783387	0.019128070444814127	-0.10669455183177745	0.5829078100074063	0.026772321946461175	-0.10846235742994392	0.5550509349511626	0.035332097464155	-0.10809588070828302	0.514274612714698	0.02352424672097908	-0.09416698532153789	0.5949602670243554	0.027182052087075248	-0.08887278088448047	0.5785094487201252	0.03455366046648267	-0.0886996710296053	0.5545723573030429	0.04131711670054805	-0.08749497469437006	0.5175608399587572	0.029645516299515062	-0.07615292188404266	0.5885637551048266	0.030466740120042468	-0.06673499120238569	0.5723237367895047	0.03558929361999652	-0.06499681665473112	0.5514716514181375	0.03731171312348747	-0.06325445454563461	0.5180283501740164	0.02515693869982194	-0.05736458938548239	0.46228308100186094	-0.023011742144276925	-0.051989820119430985
41	1.3999999999999937	0.5065933902554998	-0.024179100620438043	-0.16794033794777496	0.5012042734607582	-0.02665109936472032	-0.14574018834510538	0.49044467530238794	-0.03080131634294503	-0.11682951995947222	0.48084210427237944	-0.02711445711876337	-0.07342344090740038	0.5920071280744484	0.011777957629672264	-0.13353336029609508	0.5742678136660395	0.015206000122516716	-0.13228226118456676	0.5496030931199323	0.018866624231653417	-0.12907894657091323	0.5114483441429845	0.010975429135589576	-0.11188649868057565	0.5987393896969899	0.020234057257204174	-0.10668035130747855	0.5823124152258251	0.02768030039722591	-0.10832594324455713	0.5544142055791982	0.03610099870591099	-0.1078885778287283	0.5135690106288293	0.02434042158152505	-0.09412243108507723	0.5943323041992524	0.02838383795931365	-0.08889594093955266	0.5777965871483212	0.03556040246551995	-0.08863712923231704	0.5538373402404414	0.04222747746465616	-0.08733921646053733	0.5168426575436579	0.030421478273369718	-0.07608165592285199	0.5879572319263743	0.03226489686378797	-0.06693576831820225	0.5715882324521633	0.036914786017040235	-0.06508255837981225	0.5507212396223566	0.038321904049905986	-0.06323847376071856	0.5173746759353705	0.025905201835853764	-0.05734647516963487	0.4622830810018609	-0.023011742144276925	-0.051989820119430985
42	1.4333333333333271	0.5082621574619307	-0.020577050920086548	-0.16717853647717473	0.5025145132352595	-0.023874684020885995	-0.1451764865323144	0.49127228892613783	-0.029304755366022173	-0.11666426603355062	0.481018197274212	-0.026840963798716477	-0.07332060057356926	0.5913877144342201	0.0124818298125563	-0.13219132998675165	0.5736784830998602	0.016175766976942674	-0.1313322876294184	0.5490009198660085	0.020129914452231	-0.12861338645745213	0.5106711663677266	0.012003045583805494	-0.1119274614559318	0.5977941156083217	0.02063756835538788	-0.10622930868987102	0.5814457551266601	0.028244551071881285	-0.10792191718347277	0.5536347510418712	0.036954470746784485	-0.10761385703903403	0.5126731213666199	0.02532856332458877	-0.09408126334979194	0.5933144157433377	0.02885595292191656	-0.08866919616463953	0.5768636071503804	0.03622498633761162	-0.0884079622536359	0.5529860109987197	0.04317674312267583	-0.08709897080236051	0.5159559240423539	0.03136297957539824	-0.07596665366472	0.5870550597319752	0.03341057275436288	-0.06711949560698349	0.570680499738634	0.037993426898684235	-0.06515195071134683	0.5498246350498504	0.03945060030007408	-0.06322281288282605	0.5165804128117768	0.026794298477370804	-0.057262681763613044	0.4622830810018609	-0.023011742144276925	-0.051989820119430985
43	1.4666666666666603	0.5098410643949576	-0.0168949490989857	-0.1662953345639554	0.5037653934155852	-0.02100348975706645	-0.14451906041498042	0.4920863586563706	-0.027733264871324326	-0.11646321834947526	0.4811883354750804	-0.026532517970957792	-0.07322340686027795	0.5905445364158102	0.012969997505976827	-0.130525868242912	0.572910152992042	0.01708494106396674	-0.1302164158587148	0.5482491201176295	0.021510162999595406	-0.12815226920995648	0.5097462906182622	0.013122759715116006	-0.11200235649545076	0.5965169174248909	0.02071687228921626	-0.10558463690608022	0.5803591007008843	0.02868679675750596	-0.10742997229108953	0.5527054385230008	0.037888863951972995	-0.1073494893735597	0.5116197875702266	0.026421293543918423	-0.09405994326682121	0.5919958711469331	0.029100865833808442	-0.08836319850876273	0.5757210974053559	0.03685252730118371	-0.08815466995991572	0.5519716069167531	0.04423659099438593	-0.08688294518367723	0.5149068255464908	0.03242145144874131	-0.0758681690401688	0.5859344916780627	0.03435810132342132	-0.06733436683340244	0.5696106520666688	0.039064858107743405	-0.06524183226625024	0.5487764450889763	0.0407273633373304	-0.06324585757396028	0.5156584871809691	0.027788521662004406	-0.05719022456788103	0.4622830810018609	-0.023011742144276925	-0.051989820119430985
44	1.4999999999999936	0.5113005761272491	-0.013426837404327707	-0.16533912804758766	0.504930193541605	-0.018289818038326633	-0.14380381646252172	0.4928703861804438	-0.026212938584801226	-0.11622474455613374	0.4813464298766007	-0.026223834834886328	-0.07313079704167591	0.5895746581168544	0.013264613671131409	-0.12870908385142754	0.5720622434901008	0.017872080298259374	-0.1290033375184737	0.5474552319144129	0.02284952148323527	-0.12768808333617	0.5087797164450054	0.014228481278339755	-0.11208301162979184	0.5950806609815097	0.0204649013458279	-0.10477732897850589	0.5792045507273866	0.02893111396569714	-0.10684429948484919	0.5517639526128129	0.03874821260277361	-0.10706270155527475	0.5105352983353045	0.027515842368051824	-0.09401740177428719	0.5905227362651732	0.029054257429416475	-0.08794932786713239	0.5745059726349707	0.03732770572867827	-0.08783384603450173	0.5509284678482553	0.04525739805193518	-0.08665011181986582	0.5138170263512287	0.03348869606836158	-0.07574326087036631	0.584723817544677	0.035012647594023005	-0.06752633445164358	0.5685074422916744	0.040032114757706294	-0.06532767052859634	0.5477023268703435	0.04195039737786921	-0.06325900354372882	0.5146944163913176	0.028794322648357684	-0.05707200148133007	0.46228308100186094	-0.023011742144276925	-0.051989820119430985
45	1.5333333333333266	0.5125733936994847	-0.010130192504759772	-0.16434924352886926	0.505962137695333	-0.015692629933889646	-0.14305721253380954	0.4935832194115326	-0.024723478683771227	-0.1159642955077721	0.4814966359131565	-0.02590291418432289	-0.0730409518444829	0.5885598703087035	0.013586651828775054	-0.12701558138953806	0.5711885393245849	0.018638464368207375	-0.12786177871087423	0.5466625856931505	0.024124457289922074	-0.12723622844780602	0.5078334177303627	0.015292360548313289	-0.11213901425231698	0.5936395326717284	0.020278955951200883	-0.10401867874089654	0.5780541736051218	0.029216837650748895	-0.10630140813568367	0.5508201081897139	0.03958409114993655	-0.10678647084593174	0.5094648045284684	0.028554969655728346	-0.0939706501873796	0.5890546720005306	0.028959349099996978	-0.08752399934324617	0.5733185721901735	0.03775566387769147	-0.08752098434886135	0.5499151370259338	0.04619647165426766	-0.08642009126044525	0.512754316278331	0.03449523048234526	-0.07560920829923212	0.5835435837768279	0.03548364053819786	-0.06766780586207555	0.5674509990397923	0.04085044919800018	-0.06538174346345271	0.5466789130417957	0.04305180729087488	-0.06326361106939227	0.5137557350257141	0.029737257182751997	-0.0569651544537052	0.4622830810018609	-0.023011742144276925	-0.051989820119430985
46	1.5666666666666598	0.5137116679516218	-0.007306900453448839	-0.16338855565756216	0.5068837755202331	-0.013445573909417141	-0.14232444938299227	0.4942449352637442	-0.02340553231178677	-0.1156808958363269	0.48164730399167727	-0.025584446500606872	-0.07294400288315583	0.5876075539812035	0.014137188938746381	-0.12563563614953788	0.5703589556908997	0.019506457596177196	-0.1269228078956789	0.5459074073820083	0.02534824862709617	-0.12685142267994842	0.5069846987536484	0.016242103711675115	-0.11216343534978113	0.5923762226335891	0.020480871736763606	-0.10345024258666358	0.5770007689764945	0.02973632159315065	-0.10588582727918372	0.5499040564584642	0.04044795387807221	-0.10654813725785384	0.508475141659024	0.02949522553596906	-0.09390572129393226	0.587727633492314	0.029192156236571787	-0.08716672341394138	0.5722001265374432	0.03835124146863489	-0.0872543902733608	0.548922292075144	0.04714177765953309	-0.0862302441791406	0.511751151977754	0.03540864816069833	-0.07548962734286058	0.5824345059435633	0.03608902265927849	-0.06776315640331765	0.5664357556565166	0.04169911246829594	-0.06540373240846631	0.5456869399328106	0.04408854141216567	-0.06326146856246384	0.5128472145076866	0.030618538429346254	-0.05685874221774967	0.46228308100186083	-0.023011742144276925	-0.051989820119430985
